<svg width="24" height="24" viewBox="0 0 24 24" fill="none" xmlns="http://www.w3.org/2000/svg">
<g clip-path="url(#clip0_147_564)">
<path d="M17.09 8.86194C16.9689 8.23157 16.6502 7.65616 16.18 7.21921C15.7097 6.78226 15.1125 6.5065 14.475 6.43194L14.23 6.40194C13.8291 6.35155 13.4603 6.15668 13.1928 5.85384C12.9253 5.551 12.7775 5.161 12.777 4.75694V3.90094C13.2082 3.7219 13.5643 3.39958 13.7854 2.98838C14.0065 2.57719 14.079 2.10231 13.9905 1.6439C13.9021 1.18549 13.6582 0.771621 13.3001 0.472161C12.9419 0.172701 12.4914 0.00598617 12.0246 0.000158143C11.5577 -0.00566988 11.1032 0.149745 10.7377 0.440171C10.3721 0.730596 10.118 1.13824 10.0182 1.5943C9.91833 2.05037 9.97889 2.52691 10.1896 2.94349C10.4004 3.36008 10.7484 3.69119 11.175 3.88094V4.75494C11.1753 5.54944 11.4655 6.31652 11.9912 6.91229C12.5168 7.50807 13.2417 7.8916 14.03 7.99094L14.275 8.02294C15.039 8.11894 15.419 8.68294 15.521 9.17794C15.621 9.67294 15.491 10.3409 14.823 10.7279C14.4996 10.9147 14.1398 11.0297 13.768 11.0649L10.088 11.4109C9.4853 11.4676 8.90198 11.6538 8.37799 11.9569C7.81867 12.2731 7.37474 12.7594 7.11074 13.3451C6.84673 13.9308 6.77641 14.5855 6.90999 15.2139C7.03105 15.8443 7.34981 16.4197 7.82002 16.8567C8.29024 17.2936 8.88744 17.5694 9.52499 17.6439L9.76999 17.6759C10.1707 17.7263 10.5393 17.921 10.8068 18.2237C11.0743 18.5263 11.2223 18.9161 11.223 19.3199V20.0969C10.7917 20.2771 10.4358 20.6005 10.2153 21.0127C9.99489 21.4248 9.92342 21.9004 10.013 22.3591C10.1026 22.8179 10.3477 23.2316 10.707 23.5306C11.0663 23.8295 11.5177 23.9953 11.9851 24C12.4525 24.0047 12.9071 23.8479 13.2723 23.5562C13.6375 23.2645 13.8909 22.8557 13.9896 22.3989C14.0883 21.942 14.0263 21.4651 13.8142 21.0486C13.602 20.6321 13.2526 20.3017 12.825 20.1129V19.3199C12.8246 18.5253 12.5343 17.7581 12.0084 17.1623C11.4826 16.5665 10.7574 16.1831 9.96899 16.0839L9.72499 16.0519C8.96099 15.9559 8.57999 15.3919 8.47899 14.8969C8.37799 14.4019 8.50899 13.7339 9.17599 13.3469C9.49998 13.1599 9.86052 13.0449 10.233 13.0099L13.913 12.6649C14.5157 12.6083 15.099 12.422 15.623 12.1189C16.1823 11.8026 16.6262 11.3161 16.89 10.7302C17.1538 10.1442 17.2239 9.48942 17.09 8.86094V8.86194ZM14.437 13.5699C14.2924 13.5953 14.147 13.6153 14.001 13.6299L12.458 13.7769L14.388 15.8959C14.9713 16.5356 15.2945 17.3702 15.294 18.2359H16.9C16.9006 16.9705 16.428 15.7506 15.575 14.8159L14.437 13.5699ZM9.43399 10.4599C9.61438 10.4232 9.79666 10.3965 9.97999 10.3799L11.407 10.2439L9.46899 8.11994C8.88603 7.48011 8.56325 6.64551 8.56399 5.77994H6.96299C6.96299 7.04694 7.43299 8.26294 8.28699 9.19994L9.43399 10.4599Z" fill="black"/>
</g>
<defs>
<clipPath id="clip0_147_564">
<rect width="24" height="24" fill="white"/>
</clipPath>
</defs>
</svg>
